<?xml version="1.0" encoding="UTF-8"?>
<svg id="Capa_1" data-name="Capa 1" xmlns="http://www.w3.org/2000/svg" version="1.1" viewBox="0 0 800 800">
  <defs>
    <style>
      .cls-1 {
        fill: #000;
      }

      .cls-1, .cls-2 {
        stroke-width: 0px;
      }

      .cls-2 {
        fill: #fff;
      }
    </style>
  </defs>
  <path class="cls-2" d="M756.2,320.9h-42.4c-7.9-30.7-20.2-59.5-36.2-85.8l30.5-30.6c8.2-8.2,12.8-19.2,12.8-30.9s-4.6-22.6-12.8-30.9l-50.8-50.8c-16.5-16.5-45.3-16.5-61.7,0l-31.8,31.6c-26-15.2-53.9-26.9-84.7-34.4v-45.4c0-24.1-19.2-43.9-43.3-43.9h-71.8c-24.1,0-43,19.8-43,43.9v45.4c-30.7,7.5-58.8,19.2-84.9,34.4l-31.8-31.6c-16.5-16.5-45.3-16.5-61.8,0l-50.8,50.8c-8.1,8.1-12.8,19.4-12.8,30.9s4.5,22.6,12.8,30.8l30.5,30.6c-16,26.3-28.3,55.1-36.2,85.8h-42.4c-24.1,0-43.5,19.4-43.5,43.4v71.8c0,24.1,19.4,43,43.5,43h42.4c7.9,30.7,20.2,59.7,36.2,86l-30.5,30.7c-8.2,8.2-12.8,19.2-12.8,30.9s4.5,22.7,12.8,30.9l50.8,50.8c8.2,8.2,19.2,12.8,30.8,12.8s22.6-4.5,30.9-12.8l31.9-31.6c26.1,15.2,54.2,26.9,84.9,34.4v45.3c0,24.1,18.9,43.5,43,43.5h71.8c24.1,0,43.3-19.4,43.3-43.5v-45.3c30.7-7.5,58.7-19.2,84.7-34.4l31.6,31.5c8.2,8.3,19.2,12.8,30.9,12.8s22.6-4.5,30.9-12.8l50.8-50.8c8.2-8.2,12.7-19.2,12.8-30.8,0-11.7-4.6-22.6-12.8-30.9l-30.5-30.8c16-26.3,28.3-55.3,36.2-86h42.4c24.1,0,43.9-18.9,43.9-43v-71.8c0-24-19.8-43.4-43.8-43.4Z"/>
  <path class="cls-1" d="M399.8,536.8c-76.2,0-138-61.2-138-136.6s61.8-136.6,138-136.6,138,61.1,138,136.6c0,75.5-61.8,136.6-138,136.6Z"/>
</svg>